<svg width="32" height="32" fill="none" xmlns="http://www.w3.org/2000/svg"><path d="M12.105 18.077c-2.69 1.5-6.378-1.07-8.339-2.436-.629-.438-1.08-.752-1.263-.768-.596-.118-1.411.242-1.539.642a.848.848 0 0 0 .067.864c.827.868 3.31 3.178 5.943 4.546-5.08.784-7.054 6.799-6.972 7.376.093.648.927.833 1.297.556.024-.018.068-.06.13-.12.64-.35 1.297-.865 1.985-1.405 1.957-1.538 4.166-3.272 6.98-1.932 2.7 1.286 5.449-.535 6.804-4.53.478 1.453 1.237 2.554 2.425 2.703.89.078 1.137-.029 1.698-.366.13-.078.252-.152.367-.214.326-.203.71-.282.946.29 1.884 4.398 8.689 5.427 9.319 4.462.124-.19.024-.275-.56-.716-1.176-.889-3.573-3.514-4.811-6.857-.463-1.204-2.256-2.279-3.248-1.555-.835.76-3.534-3.058-2.423-14.912a37.68 37.68 0 0 0-1.024-.367c-.218-.085-.733-.252-1.548-.32-5.049 1.6-5.456 6.897-5.797 11.317-.106 1.379-.205 2.673-.437 3.742Z" fill="#FC0"/></svg>
