<svg width="53" height="25" fill="none" xmlns="http://www.w3.org/2000/svg"><path d="M3.067 23.8H1.219L4.363 8.896c.032-.176.016-.296-.048-.36-.064-.08-.16-.12-.288-.12a.351.351 0 0 0-.216.072L2.49 9.4l-.96-1.416 1.128-.768a2.554 2.554 0 0 1 1.464-.456c.64 0 1.144.176 1.512.528.384.352.576.864.576 1.536v.144h.288c.48-.72 1.056-1.264 1.728-1.632.688-.384 1.504-.576 2.448-.576.656 0 1.256.12 1.8.36.56.224 1.032.544 1.416.96.4.4.712.888.936 1.464.224.56.336 1.168.336 1.824 0 1.056-.144 2.064-.432 3.024a7.557 7.557 0 0 1-1.248 2.544 6.15 6.15 0 0 1-2.088 1.752c-.832.432-1.808.648-2.928.648-.896 0-1.672-.2-2.328-.6-.64-.416-1.096-.936-1.368-1.56h-.288L3.067 23.8Zm5.16-6.24c.784 0 1.48-.16 2.088-.48a4.67 4.67 0 0 0 1.56-1.272 5.467 5.467 0 0 0 .96-1.872 7.16 7.16 0 0 0 .336-2.184c0-1.056-.28-1.856-.84-2.4-.544-.544-1.272-.816-2.184-.816-.736 0-1.408.168-2.016.504a5.267 5.267 0 0 0-1.536 1.32 6.263 6.263 0 0 0-1.008 1.848 6.369 6.369 0 0 0-.36 2.112c0 1.024.264 1.824.792 2.4.528.56 1.264.84 2.208.84ZM18.602 13.624a3.035 3.035 0 0 0-.072.432 5.07 5.07 0 0 0-.024.504c0 .88.256 1.608.768 2.184.512.56 1.328.84 2.448.84.56 0 1.056-.064 1.488-.192a3.826 3.826 0 0 0 1.152-.528c.32-.24.592-.504.816-.792.24-.304.44-.624.6-.96l1.536.864a6.807 6.807 0 0 1-.84 1.32c-.336.4-.736.752-1.2 1.056-.464.304-1 .544-1.608.72-.608.176-1.304.264-2.088.264A5.72 5.72 0 0 1 19.586 19a4.355 4.355 0 0 1-1.536-.912 4.324 4.324 0 0 1-1.008-1.512c-.24-.592-.36-1.264-.36-2.016 0-1.008.16-1.976.48-2.904a7.615 7.615 0 0 1 1.392-2.496 6.741 6.741 0 0 1 2.256-1.728c.896-.448 1.912-.672 3.048-.672.8 0 1.496.128 2.088.384.592.24 1.08.576 1.464 1.008.384.416.672.896.864 1.44.192.528.288 1.08.288 1.656 0 .432-.048.848-.144 1.248l-.264 1.128h-9.552Zm5.016-5.088c-.56 0-1.088.088-1.584.264-.48.16-.92.392-1.32.696-.4.304-.744.664-1.032 1.08-.288.4-.512.84-.672 1.32h7.632c.048-.256.072-.496.072-.72 0-.864-.296-1.52-.888-1.968-.592-.448-1.328-.672-2.208-.672ZM31.92 13.624a3.035 3.035 0 0 0-.072.432 5.07 5.07 0 0 0-.024.504c0 .88.256 1.608.768 2.184.512.56 1.328.84 2.448.84.56 0 1.056-.064 1.488-.192a3.826 3.826 0 0 0 1.152-.528c.32-.24.592-.504.816-.792.24-.304.44-.624.6-.96l1.536.864a6.807 6.807 0 0 1-.84 1.32c-.336.4-.736.752-1.2 1.056-.464.304-1 .544-1.608.72-.608.176-1.304.264-2.088.264A5.72 5.72 0 0 1 32.904 19a4.355 4.355 0 0 1-1.536-.912 4.324 4.324 0 0 1-1.008-1.512c-.24-.592-.36-1.264-.36-2.016 0-1.008.16-1.976.48-2.904a7.615 7.615 0 0 1 1.392-2.496 6.741 6.741 0 0 1 2.256-1.728c.896-.448 1.912-.672 3.048-.672.8 0 1.496.128 2.088.384.592.24 1.08.576 1.464 1.008.384.416.672.896.864 1.44.192.528.288 1.08.288 1.656 0 .432-.048.848-.144 1.248l-.264 1.128H31.92Zm5.016-5.088c-.56 0-1.088.088-1.584.264-.48.16-.92.392-1.32.696-.4.304-.744.664-1.032 1.08-.288.4-.512.84-.672 1.32h7.632c.048-.256.072-.496.072-.72 0-.864-.296-1.52-.888-1.968-.592-.448-1.328-.672-2.208-.672ZM47.6 4.264c.049-.192.025-.336-.071-.432-.08-.112-.2-.168-.36-.168a.687.687 0 0 0-.36.12L44 5.704l-.96-1.416 2.832-1.92a2.782 2.782 0 0 1 1.608-.504c.528 0 .992.16 1.392.48.416.32.624.816.624 1.488 0 .272-.032.528-.096.768l-2.904 12.312c-.048.192-.032.344.048.456a.455.455 0 0 0 .36.168c.112 0 .232-.04.36-.12l2.76-1.872.96 1.416-2.76 1.872c-.512.336-1.048.504-1.608.504-.528 0-1-.16-1.416-.48-.4-.32-.6-.816-.6-1.488 0-.272.032-.528.096-.768L47.6 4.264Z" fill="currentColor"/></svg>
